<?xml version="1.0" encoding="UTF-8"?>
<!-- Generator: Adobe Illustrator 17.0.0, SVG Export Plug-In . SVG Version: 6.00 Build 0)  -->
<!DOCTYPE svg PUBLIC "-//W3C//DTD SVG 1.1//EN" "http://www.w3.org/Graphics/SVG/1.1/DTD/svg11.dtd">
<svg version="1.1" id="Capa_1" xmlns="http://www.w3.org/2000/svg" xmlns:xlink="http://www.w3.org/1999/xlink" x="0px" y="0px" width="3507px" height="2479px" viewBox="0 0 3507 2479" enable-background="new 0 0 3507 2479" xml:space="preserve">
<rect x="0" y="0" fill="#001F5B" width="3507" height="2479"/>
<g transform="translate(0.000000,2479.000000) scale(0.100000,-0.100000)">
	<path fill="#FFFFFF" d="M28328,23253c-81-224-1283-3583-2673-7463s-2549-7117-2576-7193l-48-137h5519h5520l-2,6602l-3,6601   l-2775,994c-1526,546-2784,996-2796,999C28475,23661,28462,23629,28328,23253z"/>
	<path fill="#FFFFFF" d="M5470,18663c-1081-761-1966-1388-1968-1392c-2-5,1672-952,3720-2106s3727-2101,3732-2105   c4-5-64-136-153-293c-89-156-161-287-161-291c0-3,479-6,1065-6s1065,2,1065,4c0,3-88,130-197,283c-305,432-3405,4834-4312,6123   c-447,635-816,1158-819,1161C7438,20045,6551,19424,5470,18663z"/>
	<path fill="#FFFFFF" d="M1000,13911V9630h3774h3774l921,1631c508,897,921,1633,919,1635c-3,2-2112,1192-4689,2645   c-2576,1452-4687,2643-4691,2646C1003,18189,1000,16265,1000,13911z"/>
	<path fill="#FFFFFF" d="M21855,16669c-2188-523-3981-951-3982-953c-3-2,994-4197,1049-4413l10-43h2327h2327l348,973   c192,534,703,1963,1137,3175s789,2205,789,2208c0,2-6,4-12,3C25841,17619,24044,17191,21855,16669z"/>
	<path fill="#FFFFFF" d="M12743,13248c36-51,239-340,451-643l387-550l-1589-3c-1255-2-1592-5-1600-15c-6-6-194-338-419-737   s-582-1032-793-1407l-385-682l-3897-1H1000V7885c0-1281,1-1325,18-1325c11,0,2129,339,4708,754s4842,779,5029,809l340,54l5110-638   c2811-350,7963-993,11450-1428s6357-794,6378-797l37-6v1366v1366l-5818,2l-5818,3l138,385c522,1456,852,2378,856,2393   c4,16-116,17-2411,17h-2416l-10,38c-5,20-119,494-252,1052s-263,1103-288,1210l-47,195l-2663,3l-2663,2L12743,13248z"/>
</g>
</svg>